<svg width="49" height="49" viewBox="0 0 49 49" fill="none" xmlns="http://www.w3.org/2000/svg">
<path d="M28.5 8.5H12.5C11.4391 8.5 10.4217 8.92143 9.67157 9.67157C8.92143 10.4217 8.5 11.4391 8.5 12.5V32.5M8.5 32.5V36.5C8.5 37.5609 8.92143 38.5783 9.67157 39.3284C10.4217 40.0786 11.4391 40.5 12.5 40.5H36.5C37.5609 40.5 38.5783 40.0786 39.3284 39.3284C40.0786 38.5783 40.5 37.5609 40.5 36.5V28.5M8.5 32.5L17.672 23.328C18.4221 22.5781 19.4393 22.1569 20.5 22.1569C21.5607 22.1569 22.5779 22.5781 23.328 23.328L28.5 28.5M40.5 20.5V28.5M40.5 28.5L37.328 25.328C36.5779 24.5781 35.5607 24.1569 34.5 24.1569C33.4393 24.1569 32.4221 24.5781 31.672 25.328L28.5 28.5M28.5 28.5L32.5 32.5M36.5 8.5H44.5M40.5 4.5V12.5M28.5 16.5H28.52" stroke="#9CA3AF" style="stroke:#9CA3AF;stroke:color(display-p3 0.6118 0.6392 0.6863);stroke-opacity:1;" stroke-width="2" stroke-linecap="round" stroke-linejoin="round"/>
</svg>
