<svg width="81" height="65" viewBox="0 0 81 65" fill="none" xmlns="http://www.w3.org/2000/svg">
<path d="M72.9249 38.3737C72.4299 37.8962 71.9005 37.4537 71.3364 37.0578V10.7056C71.3364 10.3679 71.3019 10.0418 71.2443 9.72738C71.0486 8.57455 70.5191 7.50322 69.6789 6.65315C68.8386 5.80308 67.7911 5.26741 66.64 5.06945C66.4443 3.91661 65.9148 2.84529 65.0745 1.99522C64.004 0.912246 62.5882 0.318359 61.0688 0.318359H6.33498C4.81555 0.318359 3.38821 0.912246 2.32922 1.99522C1.25872 3.07818 0.660156 4.52214 0.660156 6.04762V45.675C0.660156 47.2005 1.25872 48.6444 2.32922 49.7274C3.16951 50.5775 4.2285 51.1131 5.36807 51.3111C5.44865 51.3227 5.52922 51.3227 5.6098 51.3344C5.52922 51.3227 5.44865 51.3344 5.36807 51.3111C5.56375 52.4639 6.09325 53.5352 6.93354 54.3853C7.77383 55.2354 8.83282 55.7711 9.97239 55.969C10.2947 56.0272 10.617 56.0622 10.9393 56.0622H52.6659C53.9897 57.9952 55.8084 59.544 57.9263 60.5687C60.3436 62.8861 63.6012 64.3184 67.181 64.3184C74.617 64.3184 80.6602 58.2048 80.6602 50.6823C80.6602 45.2441 77.4947 40.5629 72.9364 38.3737H72.9249ZM50.2486 48.3533H6.33498C5.96663 48.3533 5.59829 48.2718 5.26447 48.1204C4.96519 47.9923 4.68893 47.806 4.44721 47.5614C3.94073 47.0491 3.66447 46.3737 3.66447 45.6633V6.04762C3.66447 5.32564 3.94073 4.65024 4.44721 4.14951C4.94217 3.64878 5.6098 3.35766 6.32347 3.35766H61.0688C61.7825 3.35766 62.4501 3.63714 62.9451 4.14951C63.1868 4.39405 63.3594 4.67353 63.4976 4.97629C63.6472 5.31399 63.7278 5.67498 63.7278 6.04762V34.659C56.2918 34.659 50.2486 40.7725 50.2486 48.2951C50.2486 48.3184 50.2486 48.3416 50.2486 48.3649V48.3533ZM63.7278 59.0083C60.9076 59.0083 58.3407 57.8788 56.4415 56.0505C55.2443 54.8977 54.3235 53.4654 53.7594 51.87C53.7019 51.707 53.6328 51.5556 53.5868 51.3926C53.299 50.4261 53.1379 49.4013 53.1263 48.3417C53.1263 48.3184 53.1263 48.2951 53.1263 48.2718C53.1263 42.4377 57.7652 37.6866 63.4976 37.5585C63.5781 37.5585 63.6472 37.5469 63.7278 37.5469C64.7753 37.5469 65.7882 37.7099 66.7436 37.9894C68.5163 38.5251 70.0933 39.5149 71.3479 40.8307C73.1897 42.7638 74.3292 45.3839 74.3292 48.2718C74.3292 54.1874 69.5753 58.9967 63.7278 58.9967V59.0083Z" fill="#E0A225" style="fill:#E0A225;fill:color(display-p3 0.8784 0.6353 0.1451);fill-opacity:1;"/>
<path opacity="0.5" d="M64.8328 48.7966V43.5913C64.8328 42.7879 64.1882 42.1357 63.3939 42.1357C62.5997 42.1357 61.9551 42.7879 61.9551 43.5913V49.4021C61.9551 49.7864 62.1047 50.159 62.381 50.4269L65.4889 53.571C65.7651 53.8504 66.1335 54.0018 66.5018 54.0018C66.8702 54.0018 67.2385 53.8621 67.5148 53.571C68.0788 53.0004 68.0788 52.0804 67.5148 51.5098L64.8213 48.7849L64.8328 48.7966Z" fill="#E0A225" style="fill:#E0A225;fill:color(display-p3 0.8784 0.6353 0.1451);fill-opacity:1;"/>
<rect opacity="0.5" x="8.71777" y="10.7988" width="34.5324" height="3.49345" rx="1.74672" fill="#E0A225" style="fill:#E0A225;fill:color(display-p3 0.8784 0.6353 0.1451);fill-opacity:1;"/>
<rect opacity="0.5" x="8.71777" y="18.9502" width="25.3237" height="3.49345" rx="1.74672" fill="#E0A225" style="fill:#E0A225;fill:color(display-p3 0.8784 0.6353 0.1451);fill-opacity:1;"/>
<rect opacity="0.5" x="8.71777" y="27.1016" width="41.4388" height="3.49345" rx="1.74672" fill="#E0A225" style="fill:#E0A225;fill:color(display-p3 0.8784 0.6353 0.1451);fill-opacity:1;"/>
<rect opacity="0.5" x="8.71777" y="35.2529" width="32.2302" height="3.49345" rx="1.74672" fill="#E0A225" style="fill:#E0A225;fill:color(display-p3 0.8784 0.6353 0.1451);fill-opacity:1;"/>
</svg>
