<svg width="40" height="40" viewBox="0 0 40 40" fill="none" xmlns="http://www.w3.org/2000/svg">
<rect width="40" height="40" rx="8" fill="#F8F9FC" style="fill:#F8F9FC;fill:color(display-p3 0.9725 0.9765 0.9882);fill-opacity:1;"/>
<path d="M10.25 26.75C15.5856 26.7457 20.898 27.4522 26.047 28.851C26.774 29.049 27.5 28.509 27.5 27.755V26.75M11.75 12.5V13.25C11.75 13.4489 11.671 13.6397 11.5303 13.7803C11.3897 13.921 11.1989 14 11 14H10.25M10.25 14V13.625C10.25 13.004 10.754 12.5 11.375 12.5H28.25M10.25 14V23M28.25 12.5V13.25C28.25 13.664 28.586 14 29 14H29.75M28.25 12.5H28.625C29.246 12.5 29.75 13.004 29.75 13.625V23.375C29.75 23.996 29.246 24.5 28.625 24.5H28.25M10.25 23V23.375C10.25 23.6734 10.3685 23.9595 10.5795 24.1705C10.7905 24.3815 11.0766 24.5 11.375 24.5H11.75M10.25 23H11C11.1989 23 11.3897 23.079 11.5303 23.2197C11.671 23.3603 11.75 23.5511 11.75 23.75V24.5M28.25 24.5V23.75C28.25 23.5511 28.329 23.3603 28.4697 23.2197C28.6103 23.079 28.8011 23 29 23H29.75M28.25 24.5H11.75M23 18.5C23 19.2956 22.6839 20.0587 22.1213 20.6213C21.5587 21.1839 20.7956 21.5 20 21.5C19.2044 21.5 18.4413 21.1839 17.8787 20.6213C17.3161 20.0587 17 19.2956 17 18.5C17 17.7044 17.3161 16.9413 17.8787 16.3787C18.4413 15.8161 19.2044 15.5 20 15.5C20.7956 15.5 21.5587 15.8161 22.1213 16.3787C22.6839 16.9413 23 17.7044 23 18.5ZM26 18.5H26.008V18.508H26V18.5ZM14 18.5H14.008V18.508H14V18.5Z" stroke="#151515" style="stroke:#151515;stroke:color(display-p3 0.0824 0.0824 0.0824);stroke-opacity:1;" stroke-width="1.5" stroke-linecap="round" stroke-linejoin="round"/>
</svg>
